<svg xmlns="http://www.w3.org/2000/svg" viewBox="0 0 512 512" fill="currentColor">
  <path d="M453.185 86.503a8.56 8.56 0 00-9.585 14.186c20.818 14.063 33.246 37.437 33.246 62.522V289.86H267.274V163.21c0-31.081-15.423-58.609-38.999-75.393h64.02a8.56 8.56 0 000-17.12H174.761c-34.743 0-66.249 19.185-82.22 50.067a8.56 8.56 0 1015.206 7.863c13.02-25.173 38.698-40.812 67.014-40.812 34.279 0 63.266 23.004 72.39 54.378H66.07a8.56 8.56 0 00-8.56 8.56v139.103H26.592a8.56 8.56 0 000 17.12h243.591v196.462a8.56 8.56 0 0017.12 0v-196.46h28.833V503.44a8.56 8.56 0 0017.12 0V306.978h152.151a8.56 8.56 0 008.56-8.56V163.21c-.001-30.78-15.245-59.456-40.782-76.707zM250.154 264.511l-36.961-28.641a8.558 8.558 0 00-12.009 1.523 8.559 8.559 0 001.523 12.009l47.447 36.767v3.684H91.097l53.141-41.18a8.56 8.56 0 00-10.486-13.532l-59.121 45.814v-112.74l26.352 20.416a8.522 8.522 0 005.236 1.794 8.56 8.56 0 005.249-15.326l-20.373-15.784h158.958c.063 1.22.091 2.45.095 3.686l-77.153 59.773-39.148-30.335a8.558 8.558 0 00-12.009 1.524 8.56 8.56 0 001.524 12.009l44.386 34.397a8.544 8.544 0 005.244 1.795 8.543 8.543 0 005.241-1.792l71.92-55.717v79.856z"/>
  <path d="M434.867 58.788l-79.221-39.611V8.56a8.56 8.56 0 00-8.56-8.56h-28.868a8.56 8.56 0 00-8.56 8.56v236.541c-.001 12.679 10.314 22.994 22.993 22.994 12.679 0 22.994-10.315 22.994-22.994v-131.39L434.867 74.1a8.561 8.561 0 000-15.312zm-96.342 186.313a5.88 5.88 0 01-5.874 5.874 5.88 5.88 0 01-5.873-5.874V17.12h11.748v227.981zm17.12-150.531V38.318l56.253 28.126-56.253 28.126z"/>
</svg>